<svg width="24" height="36" viewBox="0 0 24 36" fill="none" xmlns="http://www.w3.org/2000/svg">
<mask id="path-1-inside-1_605_39" fill="white">
<path fill-rule="evenodd" clip-rule="evenodd" d="M12 22.4995V7V0H15H24V7H15V28L14.9824 27.9824C14.9941 28.1534 15 28.326 15 28.5C15 32.6421 11.6421 36 7.5 36C3.35786 36 0 32.6421 0 28.5C0 24.3579 3.35786 21 7.5 21C9.18841 21 10.7465 21.5579 12 22.4995Z"/>
</mask>
<path fill-rule="evenodd" clip-rule="evenodd" d="M12 22.4995V7V0H15H24V7H15V28L14.9824 27.9824C14.9941 28.1534 15 28.326 15 28.5C15 32.6421 11.6421 36 7.5 36C3.35786 36 0 32.6421 0 28.5C0 24.3579 3.35786 21 7.5 21C9.18841 21 10.7465 21.5579 12 22.4995Z" fill="black"/>
<path d="M12 22.4995L11.3994 23.299L13 24.5013V22.4995H12ZM12 0V-1H11V0H12ZM24 0H25V-1H24V0ZM24 7V8H25V7H24ZM15 7V6H14V7H15ZM15 28L14.2929 28.7071L16 30.4142V28H15ZM14.9824 27.9824L15.6895 27.2753L13.8033 25.3891L13.9847 28.0504L14.9824 27.9824ZM11 7V22.4995H13V7H11ZM13 7V0H11V7H13ZM12 1H15V-1H12V1ZM15 1H24V-1H15V1ZM23 0V7H25V0H23ZM24 6H15V8H24V6ZM16 28V7H14V28H16ZM14.2753 28.6895L14.2929 28.7071L15.7071 27.2929L15.6895 27.2753L14.2753 28.6895ZM16 28.5C16 28.3033 15.9933 28.1081 15.9801 27.9144L13.9847 28.0504C13.9949 28.1988 14 28.3487 14 28.5H16ZM7.5 37C12.1944 37 16 33.1944 16 28.5H14C14 32.0899 11.0899 35 7.5 35V37ZM-1 28.5C-1 33.1944 2.80558 37 7.5 37V35C3.91015 35 1 32.0899 1 28.5H-1ZM7.5 20C2.80558 20 -1 23.8056 -1 28.5H1C1 24.9101 3.91015 22 7.5 22V20ZM12.6006 21.6999C11.1799 20.6327 9.41238 20 7.5 20V22C8.96444 22 10.3132 22.4831 11.3994 23.299L12.6006 21.6999Z" fill="black" mask="url(#path-1-inside-1_605_39)"/>
</svg>
