<svg width="40" height="40" viewBox="0 0 40 40" fill="none" xmlns="http://www.w3.org/2000/svg">
<mask id="path-1-inside-1_605_33" fill="white">
<path fill-rule="evenodd" clip-rule="evenodd" d="M21 7V14L24 17V7H33V0H24H21V7ZM16.5 36C20.6421 36 24 32.6421 24 28.5C24 27.4315 23.7765 26.4151 23.3738 25.4952L37.4681 39.5894L39.5894 37.4681L2.12132 1.75834e-05L0 2.12134L19.5048 21.6262C18.5849 21.2235 17.5685 21 16.5 21C12.3579 21 9 24.3579 9 28.5C9 32.6421 12.3579 36 16.5 36Z"/>
</mask>
<path fill-rule="evenodd" clip-rule="evenodd" d="M21 7V14L24 17V7H33V0H24H21V7ZM16.5 36C20.6421 36 24 32.6421 24 28.5C24 27.4315 23.7765 26.4151 23.3738 25.4952L37.4681 39.5894L39.5894 37.4681L2.12132 1.75834e-05L0 2.12134L19.5048 21.6262C18.5849 21.2235 17.5685 21 16.5 21C12.3579 21 9 24.3579 9 28.5C9 32.6421 12.3579 36 16.5 36Z" fill="black"/>
<path d="M21 14H20V14.4142L20.2929 14.7071L21 14ZM24 17L23.2929 17.7071L25 19.4142V17H24ZM24 7V6H23V7H24ZM33 7V8H34V7H33ZM33 0H34V-1H33V0ZM21 0V-1H20V0H21ZM23.3738 25.4952L24.0809 24.788L22.4577 25.8962L23.3738 25.4952ZM37.4681 39.5894L36.761 40.2965L37.4681 41.0036L38.1752 40.2965L37.4681 39.5894ZM39.5894 37.4681L40.2965 38.1752L41.0036 37.4681L40.2965 36.761L39.5894 37.4681ZM2.12132 1.75834e-05L2.82843 -0.707089L2.12132 -1.4142L1.41421 -0.707089L2.12132 1.75834e-05ZM0 2.12134L-0.707107 1.41423L-1.41421 2.12134L-0.707107 2.82844L0 2.12134ZM19.5048 21.6262L19.1038 22.5423L20.212 20.9191L19.5048 21.6262ZM22 14V7H20V14H22ZM24.7071 16.2929L21.7071 13.2929L20.2929 14.7071L23.2929 17.7071L24.7071 16.2929ZM23 7V17H25V7H23ZM33 6H24V8H33V6ZM32 0V7H34V0H32ZM24 1H33V-1H24V1ZM21 1H24V-1H21V1ZM22 7V0H20V7H22ZM23 28.5C23 32.0899 20.0899 35 16.5 35V37C21.1944 37 25 33.1944 25 28.5H23ZM22.4577 25.8962C22.8062 26.6921 23 27.5721 23 28.5H25C25 27.2908 24.7469 26.1382 24.2899 25.0941L22.4577 25.8962ZM38.1752 38.8823L24.0809 24.788L22.6667 26.2023L36.761 40.2965L38.1752 38.8823ZM38.8823 36.761L36.761 38.8823L38.1752 40.2965L40.2965 38.1752L38.8823 36.761ZM1.41421 0.707124L38.8823 38.1752L40.2965 36.761L2.82843 -0.707089L1.41421 0.707124ZM0.707107 2.82844L2.82843 0.707124L1.41421 -0.707089L-0.707107 1.41423L0.707107 2.82844ZM20.212 20.9191L0.707107 1.41423L-0.707107 2.82844L18.7977 22.3333L20.212 20.9191ZM16.5 22C17.4279 22 18.3079 22.1938 19.1038 22.5423L19.9059 20.7101C18.8618 20.2531 17.7092 20 16.5 20V22ZM10 28.5C10 24.9101 12.9101 22 16.5 22V20C11.8056 20 8 23.8056 8 28.5H10ZM16.5 35C12.9101 35 10 32.0899 10 28.5H8C8 33.1944 11.8056 37 16.5 37V35Z" fill="black" mask="url(#path-1-inside-1_605_33)"/>
</svg>
